<svg xmlns="http://www.w3.org/2000/svg" width="477.184" height="340.445" viewBox="0 0 477.184 340.445">
  <g id="OBJECTS" transform="translate(-46.984 -130.58)">
    <g id="Group_14" data-name="Group 14" transform="translate(46.984 130.58)">
      <path id="Path_4" data-name="Path 4" d="M416.257,258.246h52.781c10.43,0,30.563,15.05,19,66.035s-28.272,119.341-28.272,119.341H276l41.472-185.376Z" transform="translate(-14.327 -112.375)" fill="#b7a290"/>
      <path id="Path_5" data-name="Path 5" d="M392.742,412.509c-3.166,1.232-9.141,0-9.141,0-1.01,8.218-4.576,28.236-4.576,28.236H336.5L362.792,272.9l27.582-14.656h26.383c-8.583,10.851-22.933,22.991-35.815,31-1.226,6.163-5.424,24.781-5.424,24.781,11.594-3.415,49.8-17.452,48.16,10.932C422.035,351.289,411.52,376.353,392.742,412.509Z" transform="translate(-5.7 -112.375)" fill="#957c6b"/>
      <path id="Path_6" data-name="Path 6" d="M451.817,258.246c10.43,0,30.563,15.05,19,66.035s-28.272,119.341-28.272,119.341H396.76s16.547-70.27,29.583-126.337S444.742,258.246,451.817,258.246Z" transform="translate(2.893 -112.375)" fill="#957c6b"/>
      <g id="Group_10" data-name="Group 10" transform="translate(241.756)">
        <g id="Group_9" data-name="Group 9">
          <path id="Path_7" data-name="Path 7" d="M386.617,172.6c8.4-.086,33.275,1.961,37.25,15.611,2.915,12.466,1.649,37.418-3.654,54.048-3.631,10.08-43.3,50.694-59.049,52.513,2.3-19.323,3.864-87.293,3.864-87.293Z" transform="translate(-243.938 -124.588)" fill="#38302d"/>
          <path id="Path_8" data-name="Path 8" d="M361.163,288.463c.418-3.528.813-8.688,1.179-14.749L385.4,233.361c1.3-5.457,3.59-14.449,3.594-16.493,7.822,2.566,12.486,16.561,14.827,27.817,3.733.571,11.875-3.413,16.393-8.734C416.581,246.03,376.915,286.644,361.163,288.463Z" transform="translate(-243.938 -118.276)" fill="#201c1c"/>
          <path id="Path_9" data-name="Path 9" d="M326.917,284.238l45.19-14.421-9.9,46.257c-18.267,16.353-26.376,18.878-29.688,16.443h0c-7.171-4-4.623-17.19-1.359-21.662Z" transform="translate(-248.822 -110.725)" fill="#e0c1ad"/>
          <path id="Path_10" data-name="Path 10" d="M331.331,311.9l-4.414-27.663,45.19-14.421-2.237,10.455C361.85,294.422,346.548,310.841,331.331,311.9Z" transform="translate(-248.822 -110.725)" fill="#c08c72"/>
          <path id="Path_11" data-name="Path 11" d="M285.395,213.733c1.058,18.333,1.092,41.177-2.241,60.992,6.072,18.092,41.171,35.406,61.889,28.617,19.38-7.5,32.188-18.078,37.537-26.156,6.09,6.8,22.429,4.644,29.513-20.03,2.7-10.778-5.52-24.333-23.492-18.859,1.906-9.55-7.157-43.752-7.157-43.752s-52.21-8.308-87.01.635C288.084,197.762,285.04,206.4,285.395,213.733Z" transform="translate(-255.062 -121.96)" fill="#e0c1ad"/>
          <path id="Path_12" data-name="Path 12" d="M319.955,258.678c-3.515-3.433-8.555-5.941-13.627-4-2.734.935.6,5.626.6,5.626,1.218,1.722,9.123,1.864,13.643.628C321.347,260.351,319.955,258.678,319.955,258.678Z" transform="translate(-251.911 -112.981)" fill="#b7795f"/>
          <path id="Path_13" data-name="Path 13" d="M286.37,218.416l-1.235-4.353c-.007-.107-.01-.223-.016-.33-.354-7.334,2.69-15.971,9.039-18.552,34.8-8.943,87.01-.635,87.01-.635s9.062,34.2,7.157,43.752c1.465,6.939-4.665,24.9-7.774,27.4,1.291-4.407,1.424-18.681.644-25.646a247.743,247.743,0,0,0-5.543-28.279c-4.829,1.327-16.359,2.909-31.493.9C315.405,205.338,298.706,210.963,286.37,218.416Z" transform="translate(-254.786 -121.96)" fill="#c08c72"/>
          <path id="Path_14" data-name="Path 14" d="M380.759,174.123c.914-7.058,6.593-16.544,6.593-16.544,4.854-3.82,23.216-1.353,35.08,9.694-9.077-2.509-32.677-1.732-39.253,10.724C379.9,178.44,380.759,174.123,380.759,174.123Z" transform="translate(-241.159 -126.97)" fill="#38302d"/>
          <path id="Path_15" data-name="Path 15" d="M357.791,229.292l-28.136,4.485C331.16,234.223,352.406,235.957,357.791,229.292Z" transform="translate(-248.431 -116.504)" fill="#c08c72"/>
          <path id="Path_16" data-name="Path 16" d="M336.28,237.774a6.527,6.527,0,1,0,4.576-8.016A6.528,6.528,0,0,0,336.28,237.774Z" transform="translate(-247.52 -116.471)" fill="#c08c72"/>
          <path id="Path_17" data-name="Path 17" d="M329.655,234.006c1.068-2.605,8.2-5.8,15.9-6.3,4.035-.214,9.982,1.365,12.241,1.816Z" transform="translate(-248.431 -116.733)" fill="#38302d"/>
          <path id="Path_18" data-name="Path 18" d="M334.971,237.038a6.527,6.527,0,1,0,4.576-8.016A6.527,6.527,0,0,0,334.971,237.038Z" transform="translate(-247.706 -116.576)" fill="#38302d"/>
          <path id="Path_19" data-name="Path 19" d="M289.939,228.649c.358,1.771,1.186,3.324,5.113,4.866,3.065,1.1,12.1,3.421,12.1,3.421Z" transform="translate(-254.095 -116.596)" fill="#c08c72"/>
          <path id="Path_20" data-name="Path 20" d="M294.964,236.09c.758,2.771,2.976,4.577,4.958,4.037s2.973-3.227,2.216-6-2.976-4.577-4.957-4.037S294.207,233.32,294.964,236.09Z" transform="translate(-253.414 -116.404)" fill="#c08c72"/>
          <path id="Path_21" data-name="Path 21" d="M289.939,228.828c8.156-5.133,13.6,4.887,17.212,8.287Z" transform="translate(-254.095 -116.775)" fill="#38302d"/>
          <path id="Path_22" data-name="Path 22" d="M294.063,235.2c.756,2.771,2.976,4.577,4.957,4.037s2.973-3.227,2.217-6-2.976-4.578-4.958-4.038S293.305,232.431,294.063,235.2Z" transform="translate(-253.543 -116.53)" fill="#38302d"/>
          <path id="Path_23" data-name="Path 23" d="M395.2,252.188c.794-4.925.976-13.612-16.5-12.862-1.3,1.466-3.343,6.013-3.343,6.013,4.526-.663,15.011-3.527,17.427,1.66a31.914,31.914,0,0,1,1.368,7.614A7.249,7.249,0,0,0,395.2,252.188Z" transform="translate(-241.915 -115.08)" fill="#c08c72"/>
          <path id="Path_24" data-name="Path 24" d="M377.411,244.3c1.506,1.157,8.568,8.6-2.806,11.458,4.23.479,14.186-2.931,8.046-12.364C380.439,242.538,377.411,244.3,377.411,244.3Z" transform="translate(-242.022 -114.527)" fill="#c08c72"/>
          <path id="Path_25" data-name="Path 25" d="M311.558,242.642c-1.372,2.523-5,8.524-5.347,9.225-.224.968,6.761,1.965,7.5.369.876-1.99.964-10.3.9-11.169C314.491,239.829,312.725,240.58,311.558,242.642Z" transform="translate(-251.775 -114.911)" fill="#fff" style="mix-blend-mode: overlay;isolation: isolate"/>
          <path id="Path_26" data-name="Path 26" d="M330.113,231.231c1.555-2,7.387-5.544,11.373-6.933" transform="translate(-248.366 -117.216)" fill="none" stroke="#f1e3d9" stroke-miterlimit="10" stroke-width="1.038"/>
          <path id="Path_27" data-name="Path 27" d="M306.24,235.748c-.536-1.988-3.664-5.722-6.095-7.3" transform="translate(-252.639 -116.625)" fill="none" stroke="#f1e3d9" stroke-miterlimit="10" stroke-width="0.599"/>
          <g id="Group_3" data-name="Group 3" transform="translate(26.967 101.414)">
            <path id="Path_28" data-name="Path 28" d="M309.566,232.911a22.694,22.694,0,0,1-.737,8.332c-.035.08-.08.153-.113.234l-.929,2.3.015.006a11.213,11.213,0,0,1-7.194,5.745,14.531,14.531,0,0,1-5.648.36,14.148,14.148,0,0,1-9.5-6.456c0-.049,0-.107.006-.15.046-1.516,1.848-17.34,1.848-17.34l.05-.37C297.6,223.59,305.928,229.626,309.566,232.911Z" transform="translate(-281.7 -218.505)" fill="none"/>
            <path id="Path_29" data-name="Path 29" d="M285.938,243.541c0,.042,0,.1-.006.15a19.778,19.778,0,0,1-1.755-3.458,33.849,33.849,0,0,1-2-12.534,24.843,24.843,0,0,1,4.052-1.509l-.771-2.826h0l.773,2.826c.542-.147,1.075-.255,1.607-.358l-.05.37S285.984,242.025,285.938,243.541Z" transform="translate(-282.17 -218.764)" fill="none"/>
            <path id="Path_30" data-name="Path 30" d="M340.272,225.172a41.626,41.626,0,0,1,25.215.978,30.158,30.158,0,0,1-.816,12.365c-2.071,6.852-6.812,11.2-14.495,13.3-.458.126-.927.242-1.409.351-5.122.737-12.214.663-17.278-3.745a16.865,16.865,0,0,1-4.626-7.013l.123-.112-.256-.28a30.134,30.134,0,0,1-1.558-8.566A47.418,47.418,0,0,1,340.272,225.172Z" transform="translate(-276.038 -218.72)" fill="none"/>
            <path id="Path_31" data-name="Path 31" d="M284.687,222.052l-.11-.4.11.4Z" transform="translate(-281.826 -219.009)" fill="none"/>
            <path id="Path_32" data-name="Path 32" d="M285.516,244.265c-.048,1.3-.3,5.162-.422,7.03a19.433,19.433,0,0,0,9.11,4.322,19.645,19.645,0,0,0,7.764-.471,16.487,16.487,0,0,0,11.493-11.141,4.8,4.8,0,0,1,3.857-2.7c4.213-.764,9.248,1.255,10.047,2.124l.7.758c4.308,11.072,14.606,15.371,27.322,13.481.624-.137,1.226-.287,1.816-.447,13.525-3.7,17.962-13.326,18.995-21.741a27.138,27.138,0,0,0,4.809-.639c1.251-.342,5.086-7.077,3.627-10.137-2.654-1.394-13.331-4.415-21.112-4.909l.017.009a46.328,46.328,0,0,0-18.855,1.2,51.8,51.8,0,0,0-18.8,9.662,43.724,43.724,0,0,0,.455,6.753,20.72,20.72,0,0,0-9.88-1,12.716,12.716,0,0,0-1.815.482,34.941,34.941,0,0,0-.278-5.486c-4.229-4.269-13.988-11.73-26.235-10.138-.25,1.8-.584,4.222-.71,5.128,10.229-1.981,18.562,4.054,22.2,7.339a22.692,22.692,0,0,1-.737,8.332c-.035.08-.08.153-.113.234l-.929,2.3.015.006a11.213,11.213,0,0,1-7.194,5.745,14.529,14.529,0,0,1-5.648.36A14.148,14.148,0,0,1,285.516,244.265Zm45.37-11.2a47.421,47.421,0,0,1,15.1-7.278,41.627,41.627,0,0,1,25.215.978,30.16,30.16,0,0,1-.816,12.365c-2.072,6.852-6.812,11.2-14.495,13.3-.458.126-.927.242-1.409.351-5.122.737-12.214.663-17.278-3.745a16.866,16.866,0,0,1-4.626-7.013l.123-.112-.256-.28A30.129,30.129,0,0,1,330.886,233.069Z" transform="translate(-281.753 -219.338)" fill="#c08c72"/>
          </g>
          <path id="Path_33" data-name="Path 33" d="M328.23,221.277a2.916,2.916,0,0,1-3.464-1.437,6.026,6.026,0,0,1,3.262-8.114c6.164-2.7,33.024-4.947,46.772,14.006C369.858,223,353.913,214,328.23,221.277Z" transform="translate(-249.205 -119.263)" fill="#c08c72"/>
          <path id="Path_34" data-name="Path 34" d="M326.288,220.292a2.528,2.528,0,0,1-2.891-.822,6.014,6.014,0,0,1,2.553-8.811c6.034-2.977,32.765-6.443,47.361,11.866C368.23,220.012,351.784,211.695,326.288,220.292Z" transform="translate(-249.466 -119.501)" fill="#38302d"/>
          <path id="Path_35" data-name="Path 35" d="M309.946,213.374c-6-3.01-22.831-3.537-26.251,5.6.245,1.226,1.915,1.607,3.528.771,2.759-1.82,12.933-1.761,24.887,1.977C314.267,221.467,314.774,215.941,309.946,213.374Z" transform="translate(-254.985 -119.054)" fill="#c08c72"/>
          <path id="Path_36" data-name="Path 36" d="M366.779,199.52Z" transform="translate(-243.137 -120.75)" fill="#38302d"/>
          <path id="Path_37" data-name="Path 37" d="M376.621,236.84c1.2-6.67-.387-16.156-2.225-22.334a65.05,65.05,0,0,0,10.3-15.043l12.794,13.829s-8.74,19.685-13.38,22.553c-1.1,6.517-11.789,24.766-13.95,25.848C370.165,261.691,375.546,242.013,376.621,236.84Z" transform="translate(-242.655 -120.758)" fill="#38302d"/>
          <path id="Path_38" data-name="Path 38" d="M373.149,240.137c-.074-8.359-6.37-36.778-6.37-36.778L385.816,172.6c4.008,8.227,5.171,18.589-.632,30.689a65.046,65.046,0,0,1-10.3,15.043c1.837,6.178,3.422,15.664,2.225,22.334-1.075,5.174-6.456,24.852-6.456,24.852S372.333,248.773,373.149,240.137Z" transform="translate(-243.137 -124.588)" fill="#201c1c"/>
          <path id="Path_39" data-name="Path 39" d="M399.962,174.524c3.1,7.75,8.43,23.1-17,38.319-14.426,3.044-29.905,1.266-50.6-4.376-8.729-2.282-25.655-3.8-35.7.667-2.673,5.4-7.214,43.142-7.292,45.227-12.429-15.033-27.423-41.146-30.8-56.19.911-8.354,8.776-29.905,8.776-29.905,4.112-6.526,56.132-32.774,80.983-37.107C360.627,128.537,380.391,133.452,399.962,174.524Z" transform="translate(-258.568 -130.58)" fill="#38302d"/>
          <g id="Group_4" data-name="Group 4" transform="translate(120.64 61.593)">
            <path id="Path_40" data-name="Path 40" d="M364.152,184.486c.955.2,1.9.408,2.892.565A17.185,17.185,0,0,1,364.152,184.486Z" transform="translate(-364.152 -184.486)" fill="#201c1c"/>
          </g>
          <path id="Path_41" data-name="Path 41" d="M258.568,193.439c.426-3.9,2.37-10.686,4.319-16.806,16.578-14.074,47.46-16.277,59.695-8.146,26.495,20.267,41.6,22.034,57.248,22.562-27.13,4.575-49.464-5.259-67.086-12.233-21.57-7.857-47.816,11.092-52.2,21.267A58.794,58.794,0,0,1,258.568,193.439Z" transform="translate(-258.568 -125.846)" fill="#201c1c"/>
          <path id="Path_42" data-name="Path 42" d="M276.173,217.971c4.112-19.834,16.387-21.866,31.076-21.033v0a38.673,38.673,0,0,0-13.1,2.751c-2.193,4.429-5.642,30.626-6.853,41.041h0S276.528,221.786,276.173,217.971Z" transform="translate(-256.058 -121.139)" fill="#201c1c"/>
          <path id="Path_43" data-name="Path 43" d="M311.537,212.225c-5.836-3.437-22.605-5.177-26.491,3.7.181,1.242,1.827,1.742,3.482,1.025,2.849-1.619,13-.825,24.738,3.768C315.432,220.614,316.223,215.135,311.537,212.225Z" transform="translate(-254.792 -119.337)" fill="#38302d"/>
          <g id="Group_5" data-name="Group 5" transform="translate(141.46 98.592)">
            <path id="Path_44" data-name="Path 44" d="M391.251,220.708c-2.118,3.652-5.786,11.809-8.877,12.653,2.156-4.793,3.59-14.449,3.593-16.493A12.606,12.606,0,0,1,391.251,220.708Z" transform="translate(-382.374 -216.868)" fill="#201c1c"/>
          </g>
          <path id="Path_45" data-name="Path 45" d="M366.766,224.391s-26.68-9.837-45.726,7.549c1.346,7.916,6.667,23.314,24.21,20.748C358.069,250.162,367.363,242.893,366.766,224.391Z" transform="translate(-249.66 -117.598)" fill="#c7e0df" opacity="0.6" style="mix-blend-mode: overlay;isolation: isolate"/>
          <path id="Path_46" data-name="Path 46" d="M310.36,231.633c-4.169-3.951-16.422-13.823-31.568-6.209-.478,6.252,1.736,21.488,13.736,24.634C298.719,251.31,310.777,248.866,310.36,231.633Z" transform="translate(-255.693 -117.456)" fill="#c7e0df" opacity="0.6" style="mix-blend-mode: overlay;isolation: isolate"/>
          <path id="Path_47" data-name="Path 47" d="M324.683,233.183a8.689,8.689,0,1,0,6.091-10.671A8.688,8.688,0,0,0,324.683,233.183Z" transform="translate(-249.184 -117.515)" fill="#fff" style="mix-blend-mode: overlay;isolation: isolate"/>
          <path id="Path_48" data-name="Path 48" d="M278.849,231.741a7.242,7.242,0,1,0,5.078-8.9A7.242,7.242,0,0,0,278.849,231.741Z" transform="translate(-255.713 -117.46)" fill="#fff" style="mix-blend-mode: overlay;isolation: isolate"/>
          <g id="Group_6" data-name="Group 6" transform="translate(15.129 100.033)">
            <path id="Path_49" data-name="Path 49" d="M282.612,220.439h0Z" transform="translate(-270.268 -217.8)" fill="#292626"/>
            <path id="Path_50" data-name="Path 50" d="M275.076,235.731a9.2,9.2,0,0,0,2.189.4c1.641,8.014,6.1,16.213,16.588,18.284a19.65,19.65,0,0,0,7.765-.472A16.486,16.486,0,0,0,313.11,242.8a4.8,4.8,0,0,1,3.859-2.7c4.213-.764,9.248,1.255,10.047,2.124l.7.758c4.308,11.073,14.606,15.371,27.322,13.481.624-.137,1.226-.287,1.814-.447,13.526-3.7,17.962-13.325,18.995-21.741a27.161,27.161,0,0,0,4.81-.639c1.251-.342,5.086-7.077,3.627-10.137-2.655-1.394-13.332-4.415-21.112-4.909l.016.009a46.341,46.341,0,0,0-18.854,1.2,51.828,51.828,0,0,0-18.8,9.662,43.444,43.444,0,0,0,.455,6.753,20.736,20.736,0,0,0-9.88-1,12.633,12.633,0,0,0-1.816.482,35.081,35.081,0,0,0-.278-5.486c-4.64-4.682-15.923-13.244-29.859-9.438h0l.111.4h0l-.111-.4a29.937,29.937,0,0,0-5.024,1.9A33.4,33.4,0,0,0,272,225.885C271.018,228.916,274.13,235.426,275.076,235.731Zm57.152,5.087-.062-.145-.071-.247a30.09,30.09,0,0,1-1.559-8.566,47.4,47.4,0,0,1,15.1-7.277,41.626,41.626,0,0,1,25.215.977,30.185,30.185,0,0,1-.816,12.366c-2.072,6.851-6.813,11.2-14.495,13.3-.458.126-.927.242-1.409.352-5.122.736-12.214.662-17.28-3.745A16.876,16.876,0,0,1,332.227,240.817Zm-50.819-13.753a24.861,24.861,0,0,1,4.053-1.509l-.772-2.826h0l.772,2.826c10.961-2.992,19.978,3.526,23.807,6.981a22.7,22.7,0,0,1-.738,8.333c-.034.08-.079.152-.112.233l-.93,2.3.015.006a11.207,11.207,0,0,1-7.193,5.745,14.535,14.535,0,0,1-5.649.36c-5.391-1.111-9.072-4.354-11.251-9.912A33.858,33.858,0,0,1,281.408,227.064Z" transform="translate(-271.809 -218.129)" fill="#2b2929"/>
          </g>
          <path id="Path_51" data-name="Path 51" d="M282.612,220.439h0Z" transform="translate(-255.139 -117.767)" fill="#201c1c"/>
          <path id="Path_52" data-name="Path 52" d="M280.729,219.815h0Z" transform="translate(-255.408 -117.856)" fill="#201c1c"/>
          <g id="Group_7" data-name="Group 7" transform="translate(17.965 102.833)">
            <path id="Path_53" data-name="Path 53" d="M334.2,249.952a16.03,16.03,0,0,1-6.562-3.363,16.872,16.872,0,0,1-4.625-7.013l-.054-.136-.08-.256a30.151,30.151,0,0,1-1.557-8.566,47.383,47.383,0,0,1,15.1-7.278,41.635,41.635,0,0,1,25.215.977l0,.046a41.4,41.4,0,0,0-23.068-.308,47.4,47.4,0,0,0-15.1,7.277,30.092,30.092,0,0,0,1.559,8.566l.071.247.062.145a16.876,16.876,0,0,0,4.625,7.014A15.367,15.367,0,0,0,334.2,249.952Z" transform="translate(-267.584 -220.401)" fill="#1a1919"/>
            <path id="Path_54" data-name="Path 54" d="M310.592,234.147a12.692,12.692,0,0,0-1.817.482,34.926,34.926,0,0,0-.276-5.486,37.623,37.623,0,0,0-13.1-8.564,36.8,36.8,0,0,1,15.255,9.277,34.851,34.851,0,0,1,.265,4.247C310.809,234.12,310.7,234.128,310.592,234.147Z" transform="translate(-271.281 -220.58)" fill="#1a1919"/>
            <path id="Path_55" data-name="Path 55" d="M290.763,248.1c-4.936-1.266-8.367-4.43-10.432-9.695a33.858,33.858,0,0,1-2-12.534,24.977,24.977,0,0,1,4.053-1.511l-.772-2.826h0l.772,2.826c.622-.169,1.235-.3,1.843-.41l.307,1.124a24.851,24.851,0,0,0-4.053,1.509,33.862,33.862,0,0,0,2,12.535C284.233,243.576,286.969,246.523,290.763,248.1Z" transform="translate(-273.716 -220.445)" fill="#1a1919"/>
            <path id="Path_56" data-name="Path 56" d="M283.8,224.81l-.307-1.124a22.319,22.319,0,0,1,12.058,1.231A21.679,21.679,0,0,0,283.8,224.81Z" transform="translate(-272.979 -220.186)" fill="#1a1919"/>
            <path id="Path_57" data-name="Path 57" d="M274.759,233.262c.024.119.056.239.081.358-.037-.014-.088-.025-.119-.039a1.165,1.165,0,0,1-.431-.371C274.446,233.227,274.6,233.246,274.759,233.262Z" transform="translate(-274.291 -218.779)" fill="#1a1919"/>
            <path id="Path_58" data-name="Path 58" d="M344.4,255.27c.624-.138,1.226-.287,1.814-.448,13.525-3.7,17.962-13.325,18.995-21.741a27.176,27.176,0,0,0,4.81-.638c1.251-.342,5.086-7.078,3.627-10.137a17.589,17.589,0,0,0-2.042-.846,28.678,28.678,0,0,1,4.193,1.559c1.459,3.06-2.375,9.8-3.627,10.137a27.162,27.162,0,0,1-4.81.639c-1.033,8.416-5.468,18.046-18.995,21.741-.588.16-1.19.31-1.814.447a30.287,30.287,0,0,1-15.287-1.241A31.992,31.992,0,0,0,344.4,255.27Z" transform="translate(-266.166 -220.454)" fill="#1a1919"/>
            <path id="Path_59" data-name="Path 59" d="M289.423,251.064a19.649,19.649,0,0,0,7.765-.471,16.488,16.488,0,0,0,11.492-11.141,4.8,4.8,0,0,1,3.859-2.7,15.818,15.818,0,0,1,8.215,1.107,14.527,14.527,0,0,0-6.064-.394,4.8,4.8,0,0,0-3.859,2.7,16.486,16.486,0,0,1-11.492,11.14,19.649,19.649,0,0,1-7.765.472,21.62,21.62,0,0,1-3.785-1.109C288.319,250.815,288.858,250.954,289.423,251.064Z" transform="translate(-272.366 -218.298)" fill="#1a1919"/>
          </g>
          <path id="Path_60" data-name="Path 60" d="M343.532,241.983c.338,1.239,2.022,1.857,3.76,1.381s2.875-1.864,2.537-3.1-2.022-1.857-3.762-1.381S343.194,240.746,343.532,241.983Z" transform="translate(-246.461 -115.16)" fill="#fff" style="mix-blend-mode: overlay;isolation: isolate"/>
          <path id="Path_61" data-name="Path 61" d="M291.9,241.114c.266.973,1.633,1.448,3.052,1.059s2.355-1.49,2.09-2.463-1.633-1.447-3.052-1.059S291.634,240.142,291.9,241.114Z" transform="translate(-253.821 -115.189)" fill="#fff" style="mix-blend-mode: overlay;isolation: isolate"/>
          <path id="Path_62" data-name="Path 62" d="M366.248,224.578a8.032,8.032,0,0,0-3.623-.767c-.67.33-.027,3.547-.027,3.547.462.426,2.785-.049,2.914-.1A2.984,2.984,0,0,0,366.248,224.578Z" transform="translate(-243.773 -117.288)" fill="#fff"/>
          <path id="Path_63" data-name="Path 63" d="M273.576,226.472a5.924,5.924,0,0,1,2.659-.644c.5.23.1,2.619.1,2.619-.331.325-2.058.024-2.154-.013A2.2,2.2,0,0,1,273.576,226.472Z" transform="translate(-256.435 -116.999)" fill="#fff"/>
          <g id="Group_8" data-name="Group 8" transform="translate(60.343 160.526)">
            <path id="Path_64" data-name="Path 64" d="M329.6,275.224a19.237,19.237,0,0,1-9.019,1.714" transform="translate(-310.068 -270.481)" fill="none" stroke="#c08c72" stroke-miterlimit="10" stroke-width="1.197"/>
            <path id="Path_65" data-name="Path 65" d="M334.916,273.851c-2.786-4.213-17.141-2.78-23.536-1.24" transform="translate(-311.38 -271.073)" fill="none" stroke="#95624e" stroke-miterlimit="10" stroke-width="1.964"/>
          </g>
        </g>
      </g>
      <path id="Path_66" data-name="Path 66" d="M395.853,300.414c-17.9,2.1-24.612,5.177-24.612,5.177-5.857,10.255-18.933,19.778-31.632,16.73-3.557-1.143-4.416-8.615-.558-14.783l-.515-3.224c-2.334-.75-6.267-2.214-8.406-2.681-1.442,2.821-30.01,56.708-30.01,56.708-2.768,11.749-27.352,76.391-27.352,76.391H373.25L391.387,342.8Z" transform="translate(-14.787 -106.362)" fill="#a64d2e"/>
      <path id="Path_67" data-name="Path 67" d="M365.874,320.247l20.6,40.048-11.056,56.049c-9.472,7.558-27.33,9.677-27.33,9.677H279.073s11.636-7.213,10.561-19.9c9.245-2.365,44.052-19.858,50.718-24.722,0,0-1.506-2.876-2.15-4.166C341.642,369.063,358.411,335.666,365.874,320.247Z" transform="translate(-13.888 -103.534)" fill="#7f3520"/>
      <path id="Path_68" data-name="Path 68" d="M345.337,301.544c-8.423-3.488-34.222,11.78-45.279,24.416-12.636,10-53.505,47.009-61.074,51.993-9.821,5.881-42.841,37.589-72.851,39.168.527,6.844,5.315,5.792,5.315,5.792l52.457-1.69c29.854-11.287,86.683-56.477,91.421-62.971C323.224,344.914,345.337,301.544,345.337,301.544Z" transform="translate(-29.993 -106.273)" fill="#cca795"/>
      <path id="Path_69" data-name="Path 69" d="M333.516,301.539c-8.48-2.663-29.889,5.762-60.435,34.789-5.1,4.847-24.051,22.068-24.051,22.068,4.626,9.215,17.1,24.342,27.124,25.738,25.944-23.059,27.352-25.887,27.352-25.887S330.671,316.582,333.516,301.539Z" transform="translate(-18.172 -106.268)" fill="#a64d2e"/>
      <path id="Path_70" data-name="Path 70" d="M301.6,354.78c2.6-8.014,12.929-29.392,12.929-29.392-12.492,13.931-21.38,34.59-52.129,51.166.961,4.084,6.663,7.447,6.663,7.447C274.248,380.667,295.4,362.073,301.6,354.78Z" transform="translate(-16.266 -102.801)" fill="#7f3520"/>
      <path id="Path_71" data-name="Path 71" d="M284.959,415.6c-2.41-19.925-62.413-38.151-65.786,0Z" transform="translate(-22.43 -93.116)" fill="#3f3f44"/>
      <path id="Path_72" data-name="Path 72" d="M389.893,303.2c-22.329,20.251-28.56,67.5-37.907,84.64-9.866,7.27-51.9,19.666-59.85,21.1a33.186,33.186,0,0,1-6.885.371c-10.232-3.882-20.419-7.887-26.535-8.928-4.109-.7-19.649-3.063-21.923-2.779-2.749.379-11.468,10.521-11.468,10.521.758,1.99,4.264,2.748,8.055,0a44.007,44.007,0,0,0,4.076-3.318c3.317.569,7.014,1.233,7.014,1.233-2.465,1.042-10.806,5.863-11.468,6.249-1.8,1.428-7.2,6.167-7.2,6.167-1.706,1.706.664,3.145,3.318,2.236,2.843-.91,8.435-4.7,8.435-4.7-1.027.678-5.213,4.929-5.782,6.256-.758,1.516-.19,4.929,5.592.854,3.412-2.559,7.677-5.5,7.677-5.5,1.138-.948,5.687-2.56,5.687-2.56a26.277,26.277,0,0,1,2.654-.569,38.822,38.822,0,0,0-7.153,4.886,65.174,65.174,0,0,0-4.015,5.291c.285,1.327,3.068,2.2,6.575-1.216,2.749-2.654,8.507-4.373,10.641-4.657,2.038-.19,7.113,5.59,9.144,6.581,2.732,1.2,5.378,2.339,14.669,1.031,4.458.284,6.3.233,10.175.588,20.125.747,78.823-4.869,86.092-14.215,7.27-7.789,40.5-64.389,44.657-83.082C427.8,302.16,402.874,298.524,389.893,303.2Z" transform="translate(-21.568 -106.21)" fill="#e0c1ad"/>
      <path id="Path_73" data-name="Path 73" d="M374.226,303.355c10.839-4.927,41.25-8.532,34.629,30.267-2.822,12.356-27.4,65.149-27.4,65.149-8.815,1.554-30.82-.375-46.368-16.849C340.884,367.694,352.154,318.766,374.226,303.355Z" transform="translate(-5.901 -106.368)" fill="#a64d2e"/>
      <g id="Group_11" data-name="Group 11" transform="translate(203.982 304.522)">
        <path id="Path_74" data-name="Path 74" d="M236.221,401.7a15.457,15.457,0,0,0-1.673,1.476Z" transform="translate(-224.22 -396.442)" fill="#314eaa" opacity="0.4" style="mix-blend-mode: multiply;isolation: isolate"/>
        <path id="Path_75" data-name="Path 75" d="M237.51,402.354c1.734-1.152,6.09-3.623,6.09-3.623a26.364,26.364,0,0,0,3.015-1.633,38.16,38.16,0,0,0-4.984,1.156,101.777,101.777,0,0,0-9.841,5.921c-1,.586-4.6,2.814-6.281,2.518a3.615,3.615,0,0,0,3.566.361C231.918,406.145,237.51,402.354,237.51,402.354Z" transform="translate(-225.509 -397.098)" fill="#314eaa" opacity="0.4" style="mix-blend-mode: multiply;isolation: isolate"/>
        <path id="Path_76" data-name="Path 76" d="M249.82,401.074a26.282,26.282,0,0,1,2.654-.569c1.193-.347,2.324-.641,2.324-.641a11.682,11.682,0,0,0-4.348-.362,14.42,14.42,0,0,0-6.919,2.414c-1.633,1.381-9.4,8.808-11.965,9.056.865.28,2.387-.079,4.889-1.842,3.412-2.559,7.677-5.5,7.677-5.5C245.271,402.685,249.82,401.074,249.82,401.074Z" transform="translate(-224.645 -396.765)" fill="#314eaa" opacity="0.4" style="mix-blend-mode: multiply;isolation: isolate"/>
      </g>
      <path id="Path_77" data-name="Path 77" d="M286.787,209.35c6.716-7.546,24.891-19.608,63.029-4.534-17.035-2.829-53.362-8.491-62.692,16.445,5.1,9.408,8.7,13.158,8.7,13.158-1.659.735-5.415,3.684-4.813,5.646s2.53,19.132,15.209,23.435a195.074,195.074,0,0,1-2.611,19.981c6.331,7.841,21.89,26.878,52.566,29.692.167,8.475-.581,22.724-.581,22.724l-1.37-4.141c-3.546-.243-20.353-4.628-40.082,17.843s-82.209,70.882-82.209,70.882-26.825,17.806-47.043,26.3l-13.475.434s-4.79,1.052-5.317-5.792c30.01-1.579,63.03-33.287,72.851-39.168,3.152-2.076,12.086-9.711,22.346-18.631q-.252-.47-.479-.921s18.947-17.221,24.051-22.068c26.344-25.033,45.883-34.735,56.2-35.225a9.067,9.067,0,0,1,4.233.436c2.138.466,6.071,1.93,8.4,2.68l-2.4-15.067c-.07,0-.137,0-.208,0-.258,0-.521-.019-.78-.026q-1.4-.034-2.837-.159-.979-.084-1.969-.208-1.489-.185-2.995-.457a65.666,65.666,0,0,1-9.754-2.577c-.175-.059-.351-.113-.524-.175-.286-.1-.567-.214-.851-.319-1.288-.474-2.569-.977-3.831-1.524a74.337,74.337,0,0,1-8.311-4.244c-.19-.113-.385-.221-.574-.335a54.881,54.881,0,0,1-14.006-11.708c-.016-.018-.033-.037-.048-.056a30.852,30.852,0,0,1-3.293-4.877c-.015-.026-.032-.053-.047-.08-.273-.513-.519-1.029-.748-1.546-.021-.047-.047-.093-.066-.138-.213-.488-.4-.978-.567-1.468-.026-.074-.062-.15-.087-.224h0v0l0-.013h0c.246-1.459.467-2.939.676-4.428.061-.425.114-.854.171-1.28q.23-1.712.43-3.443c.015-.135.031-.27.046-.4.03-.26.061-.521.089-.783.267-2.451.492-4.927.681-7.414l.006-.077c.033-.431.049-.864.079-1.295-5.673-3.565-8.465-9.632-9.687-15.6a9.194,9.194,0,0,1-2.189-.4.6.6,0,0,1-.2-.123,2.153,2.153,0,0,1-.227-.24l-.007-.008h0c-1.214-1.467-3.509-6.811-2.65-9.474a17.925,17.925,0,0,1,2.943-1.565,200.654,200.654,0,0,1-12.7-23.214l-.022-.048q-.632-1.39-1.213-2.745c-.023-.053-.043-.1-.066-.157q-.533-1.251-1.019-2.467c-.031-.079-.064-.159-.095-.237q-.483-1.219-.911-2.393c-.051-.143-.1-.282-.152-.423q-.387-1.08-.729-2.121c-.022-.069-.048-.141-.07-.21-.234-.727-.446-1.432-.641-2.124-.045-.159-.088-.316-.131-.474s-.087-.309-.127-.459h0c-.139-.531-.269-1.052-.383-1.56.029-.253.063-.519.1-.794.014-.1.031-.2.047-.3.029-.186.057-.37.09-.566.021-.119.045-.245.067-.366.033-.185.066-.368.1-.56.026-.133.055-.271.083-.407.038-.189.077-.376.119-.57.009-.042.016-.081.025-.123.023-.105.049-.217.073-.323.043-.192.086-.384.131-.58.037-.159.075-.32.114-.482.046-.193.093-.387.141-.585.041-.167.083-.336.127-.506.05-.2.1-.4.153-.6.046-.176.091-.352.138-.529.051-.2.105-.4.159-.6s.1-.375.152-.563.11-.4.166-.6.106-.379.16-.571.115-.409.175-.615.111-.391.168-.587.114-.392.173-.588.121-.415.183-.624q.086-.288.174-.577c.05-.171.1-.342.153-.513l.035-.117.178-.582c.064-.209.127-.418.191-.626s.121-.39.183-.584q.214-.689.43-1.37c.042-.131.083-.264.126-.4h0c.136-.43.273-.857.41-1.279.259-.8.518-1.592.771-2.355.379-1.144.746-2.233,1.089-3.237q.387-1.133.726-2.1c.872-2.508,1.46-4.124,1.46-4.124a17.667,17.667,0,0,1,4.368-3.807c.251-.176.513-.355.782-.538,1.348-.912,2.917-1.9,4.67-2.958.5-.3,1.013-.6,1.538-.91,1.463-.856,3.031-1.746,4.693-2.66q.817-.451,1.666-.91,1.111-.6,2.267-1.212,2.261-1.195,4.676-2.42,1.212-.617,2.458-1.235,1.745-.869,3.547-1.74t3.617-1.728q.787-.37,1.579-.739,1.224-.569,2.461-1.132,1.167-.531,2.341-1.059c3.764-1.685,7.581-3.319,11.355-4.847q.809-.327,1.613-.648c10.2-4.06,19.975-7.277,27.353-8.564h0c.551-.117,1.121-.212,1.7-.3.1-.015.2-.031.308-.045.6-.08,1.219-.143,1.851-.183h.01a26.573,26.573,0,0,1,4.253.085h0c-26.082,8.191-56.529,24.544-74.457,35.779C290.215,173.488,284.271,199.541,286.787,209.35Z" transform="translate(-29.997 -130.579)" fill="#fff" style="mix-blend-mode: overlay;isolation: isolate"/>
      <g id="Group_12" data-name="Group 12" transform="translate(19.483 131.913)">
        <rect id="Rectangle_2" data-name="Rectangle 2" width="233.312" height="150.857" rx="8.949" transform="translate(247.115 150.857) rotate(180)" fill="#777a82"/>
        <rect id="Rectangle_3" data-name="Rectangle 3" width="233.312" height="150.857" rx="8.949" transform="translate(233.312 150.857) rotate(180)" fill="orange"/>
        <path id="Rectangle_4" data-name="Rectangle 4" d="M6.865,0H122.727a6.865,6.865,0,0,1,6.865,6.865V73.578a6.865,6.865,0,0,1-6.865,6.865H6.866A6.866,6.866,0,0,1,0,73.578V6.865A6.865,6.865,0,0,1,6.865,0Z" transform="translate(170.089 120.214) rotate(180)" fill="#37383b"/>
        <rect id="Rectangle_5" data-name="Rectangle 5" width="129.593" height="80.443" rx="6.865" transform="translate(157.887 120.893) rotate(180)" fill="#2c2d2f"/>
        <rect id="Rectangle_6" data-name="Rectangle 6" width="41.41" height="116.083" transform="translate(113.795 178.934) rotate(180)" fill="#3d3e41"/>
        <rect id="Rectangle_7" data-name="Rectangle 7" width="32.097" height="116.083" transform="translate(104.483 178.934) rotate(180)" fill="#252628"/>
        <rect id="Rectangle_8" data-name="Rectangle 8" width="128.981" height="11.201" transform="translate(178.285 190.135) rotate(180)" fill="#777a82"/>
        <rect id="Rectangle_9" data-name="Rectangle 9" width="128.981" height="11.201" transform="translate(157.581 190.135) rotate(180)" fill="#333438"/>
      </g>
      <rect id="Rectangle_10" data-name="Rectangle 10" width="471.695" height="18.397" transform="translate(471.695 340.445) rotate(180)" fill="#957c6b"/>
      <path id="Path_78" data-name="Path 78" d="M233.153,395.579a43.983,43.983,0,0,0,4.076-3.318c3.317.569,7.014,1.233,7.014,1.233,1.205-.474,4.024-1.46,4.024-1.46-1.785-.658-10.944-2.583-10.944-2.583-2.253,1.737-8.281,7.722-10.505,7.668C228.365,397.663,230.7,397.359,233.153,395.579Z" transform="translate(-21.34 -93.666)" fill="#314eaa" opacity="0.4" style="mix-blend-mode: multiply;isolation: isolate"/>
      <g id="Group_13" data-name="Group 13" transform="translate(221.729 0.006)">
        <path id="Path_79" data-name="Path 79" d="M375.851,300.126l.088-.408c4.839-1.841,10.93-5.852,17.3-10.914,4.91-1.092,10.3-4.967,14.508-12.775,11.64-11.188,21.594-22.96,23.327-27.774,5.3-16.63,6.569-41.583,3.654-54.048-3.768-12.941-26.309-15.45-35.8-15.6,8.5-9.556,28.865-10.008,37.147-7.718-11.864-11.047-30.226-13.513-35.08-9.694a67.914,67.914,0,0,0-5.489,11.925c-15.47-31.789-31-41.224-42.818-42.4h0a26.576,26.576,0,0,0-4.253-.085h-.01c-.632.04-1.249.1-1.852.183-.1.014-.2.03-.307.045-.579.085-1.149.181-1.7.3h0c-7.378,1.287-17.15,4.5-27.353,8.564q-.806.321-1.613.648c-3.774,1.528-7.591,3.162-11.355,4.847q-1.176.526-2.341,1.059-1.236.564-2.461,1.132-.792.368-1.579.739-1.83.862-3.617,1.728t-3.547,1.74q-1.246.619-2.458,1.235c-1.011.512-2,1.021-2.969,1.528,16.551-.3,35.216,5.572,61.4,24.212,9.264,8.112,41.182,23.116,50.713,15.615-1.858,7.141-12.511,21.672-33.218,20.1,2.073,6.023.7,85.627-33.6,98.976q1.433.123,2.837.159c.259.007.522.024.78.026.07,0,.138,0,.208,0a33.8,33.8,0,0,0,10.391-1.5c1.928,7.076,5.363,19.655,2.831,35.33,12.684-4.807,28.435-10.794,37.358,0,6.754,8.083-29.48,69.017-29.48,69.017a27.81,27.81,0,0,0,8.67,3.829,60.464,60.464,0,0,0,16.369,3.217,37.654,37.654,0,0,0,8.072-.374s24.575-52.793,27.4-65.149c5.543-32.478-14.859-35.24-28.013-32.388-13.327,2-18.487,4.362-18.487,4.362l6.349-29.682Z" transform="translate(-234.734 -130.586)" fill="#314eaa" opacity="0.4" style="mix-blend-mode: multiply;isolation: isolate"/>
        <path id="Path_80" data-name="Path 80" d="M301.119,410.4c-2.494,0-14.751.435-19.63-.54-4.82.8-7.657,1.784-15.681-1.495-3.376-2.055-7.683-4.874-12.038-2.583-2.348,1.066-5.872,1.947-8.22,4.639-1.077,1.419-3.342,3.517-4.509,3.5,1.172.383,3.17,0,5.489-2.252,2.749-2.654,8.507-4.373,10.641-4.657,2.038-.19,7.113,5.59,9.144,6.581,2.732,1.2,5.378,2.339,14.669,1.031,4.458.284,6.3.233,10.175.588,20.125.747,78.823-4.869,86.093-14.215,1.83-1.961,5.306-7.016,9.548-13.777A60.463,60.463,0,0,1,370.47,384C364.95,391.914,349.118,408.756,301.119,410.4Z" transform="translate(-241.041 -94.449)" fill="#314eaa" opacity="0.4" style="mix-blend-mode: multiply;isolation: isolate"/>
      </g>
    </g>
  </g>
</svg>
